<?xml version="1.0" encoding="utf-8"?>
<!DOCTYPE svg PUBLIC "-//W3C//DTD SVG 1.1//EN" "http://www.w3.org/Graphics/SVG/1.1/DTD/svg11.dtd">
<svg width="340pt" height="340pt" viewBox="0 0 340 340" version="1.1" xmlns="http://www.w3.org/2000/svg">
<g>
<path fill="#fff" opacity="1.00" d="M 127.40 18.49 C 139.16 12.99 152.09 10.92 164.91 9.72 C 189.94 8.89 216.16 15.81 235.01 32.95 C 249.36 46.25 260.56 64.21 262.07 84.08 C 263.81 103.06 262.23 122.14 261.07 141.11 C 267.34 143.83 274.14 141.23 280.01 138.70 C 287.47 135.12 297.19 137.21 302.62 143.41 C 305.71 146.72 306.18 152.07 303.84 155.92 C 300.88 160.64 295.83 163.49 290.91 165.77 C 282.64 169.53 272.71 170.48 266.06 177.19 C 262.30 181.12 263.34 187.03 265.55 191.46 C 274.40 210.79 288.35 228.20 306.60 239.36 C 314.71 244.22 323.68 247.77 333.04 249.30 C 336.78 249.51 340.08 253.13 339.56 256.93 C 339.45 262.08 334.98 265.69 330.84 268.02 C 319.58 274.13 306.69 276.01 294.28 278.41 C 291.61 283.97 291.68 290.47 289.16 296.11 C 288.13 297.98 286.24 299.57 284.05 299.74 C 277.12 300.50 270.46 297.92 263.61 297.52 C 255.90 297.03 248.04 296.99 240.48 298.79 C 231.15 301.23 223.63 307.57 215.79 312.85 C 206.50 319.48 196.37 325.40 185.07 327.69 C 178.83 329.20 172.39 328.73 166.04 328.81 C 155.11 328.97 144.45 325.28 135.07 319.89 C 125.43 314.42 117.03 307.02 107.27 301.78 C 99.25 297.49 89.92 297.07 81.03 297.28 C 74.24 297.38 67.62 298.98 60.98 300.15 C 57.31 300.82 52.56 299.95 50.85 296.22 C 48.37 290.51 48.18 284.12 45.86 278.35 C 33.58 276.28 21.00 274.15 9.82 268.40 C 5.39 266.05 0.65 262.32 0.37 256.90 C -0.04 253.10 3.23 249.57 6.96 249.30 C 24.84 246.39 40.91 236.30 53.19 223.23 C 62.45 213.23 70.28 201.76 75.40 189.10 C 77.20 184.98 76.84 179.78 73.40 176.61 C 66.08 169.93 55.63 169.29 47.12 164.83 C 42.93 162.66 38.68 160.02 36.17 155.90 C 33.80 152.07 34.30 146.75 37.37 143.45 C 42.40 137.66 51.49 135.31 58.46 138.85 C 64.79 141.63 72.23 143.93 78.94 141.09 C 78.19 128.38 77.06 115.68 77.24 102.95 C 77.08 91.00 77.56 78.78 81.44 67.37 C 89.65 45.97 106.27 27.67 127.40 18.49 Z"/>
</g>
</svg>
